<?xml version="1.0" standalone="no"?>
<!DOCTYPE svg PUBLIC "-//W3C//DTD SVG 20010904//EN"
 "http://www.w3.org/TR/2001/REC-SVG-20010904/DTD/svg10.dtd">
<svg version="1.0" xmlns="http://www.w3.org/2000/svg"
 width="623.000000pt" height="400.000000pt" viewBox="0 0 623.000000 400.000000"
 preserveAspectRatio="xMidYMid meet">

<g transform="translate(0.000000,400.000000) scale(0.100000,-0.100000)"
fill="#000000" stroke="none">
<path d="M3735 3605 c-38 -7 -115 -15 -170 -19 -55 -4 -129 -11 -165 -16 -114
-17 -294 -49 -335 -60 -22 -5 -114 -26 -205 -46 -91 -21 -218 -54 -284 -76
-65 -21 -126 -38 -136 -38 -10 0 -51 -14 -91 -31 -41 -16 -92 -37 -114 -46
-22 -8 -68 -28 -103 -44 -35 -16 -67 -29 -73 -29 -13 0 -90 -39 -109 -55 -8
-7 -24 -15 -35 -19 -31 -8 33 3 100 18 54 13 166 47 250 78 35 12 161 44 255
63 36 8 97 25 135 39 39 14 95 28 125 31 30 4 84 15 120 25 160 46 415 64 745
55 154 -5 291 -8 305 -7 39 1 175 -18 290 -40 58 -11 137 -26 175 -34 117 -22
294 -73 400 -114 123 -48 280 -125 318 -157 16 -13 34 -23 41 -23 16 0 251
-229 288 -280 33 -46 52 -83 78 -155 28 -78 44 -273 29 -367 -14 -89 -67 -219
-122 -299 -104 -151 -142 -203 -183 -243 -43 -45 -171 -157 -201 -179 -17 -12
-49 -35 -71 -52 -23 -16 -64 -43 -92 -60 -28 -16 -78 -47 -111 -67 -33 -21
-63 -38 -68 -38 -5 0 -25 -14 -46 -30 -21 -17 -60 -37 -86 -44 -27 -8 -67 -26
-91 -40 -82 -48 -376 -147 -608 -206 -175 -44 -306 -69 -565 -110 -100 -16
-298 -29 -530 -35 -121 -3 -238 -9 -260 -13 -39 -8 -39 -8 35 -20 252 -40 906
-42 1185 -3 223 31 356 52 395 62 205 54 309 88 445 144 88 36 188 77 222 91
34 14 90 40 125 58 271 142 333 177 410 228 82 56 245 193 333 282 68 68 189
236 232 321 45 88 73 159 99 250 23 76 23 231 1 295 -84 247 -127 321 -282
487 -75 81 -166 156 -202 167 -13 4 -23 11 -23 15 0 10 -75 56 -175 108 -87
44 -273 108 -510 174 -218 60 -305 78 -445 89 -69 5 -170 14 -225 20 -136 13
-335 11 -420 -5z"/>
<path d="M3215 3178 c-204 -9 -529 -35 -605 -48 -30 -6 -113 -22 -185 -36 -71
-14 -164 -32 -205 -39 -119 -19 -321 -79 -355 -104 -5 -4 -37 -18 -70 -31 -33
-13 -82 -33 -110 -45 -27 -12 -63 -25 -80 -29 -16 -3 -66 -24 -110 -45 -44
-22 -119 -58 -168 -81 -48 -23 -122 -65 -163 -93 -42 -29 -102 -68 -133 -87
-64 -40 -126 -85 -157 -115 -401 -387 -444 -445 -532 -715 -51 -157 -66 -237
-57 -320 9 -86 63 -241 110 -315 57 -89 178 -202 301 -280 17 -11 51 -33 75
-49 62 -42 297 -158 409 -201 328 -129 778 -191 1365 -188 298 1 318 2 497 32
102 17 202 31 220 31 19 0 68 9 109 20 41 11 112 30 159 41 86 21 222 63 340
104 36 13 103 36 150 51 47 15 130 48 185 74 55 26 110 50 123 54 12 4 22 14
22 21 0 12 -7 12 -45 0 -25 -7 -51 -17 -58 -22 -14 -11 -59 -25 -169 -52 -42
-11 -89 -26 -105 -34 -16 -8 -69 -23 -118 -32 -128 -24 -157 -29 -270 -53 -55
-11 -138 -23 -185 -26 -47 -4 -125 -14 -175 -23 -73 -14 -154 -17 -425 -18
-518 0 -707 17 -1005 90 -248 62 -337 99 -546 229 -160 99 -335 259 -378 346
-10 19 -26 51 -36 70 -34 64 -37 72 -46 124 -20 101 -22 238 -6 324 18 92 83
221 187 372 74 107 264 298 352 357 136 89 359 207 477 253 30 11 73 32 96 45
23 14 48 25 56 25 8 0 41 14 74 32 33 17 94 42 135 54 41 12 98 31 125 42 67
27 229 69 520 136 324 74 522 96 874 96 139 0 241 4 241 9 0 5 -28 11 -62 14
-35 2 -108 11 -163 20 -126 20 -263 24 -480 15z"/>
<path d="M3883 2909 c-10 -10 -215 -38 -285 -39 -47 0 -54 -12 -62 -122 -4
-47 -20 -157 -37 -245 -16 -87 -37 -216 -45 -288 -8 -71 -18 -150 -23 -175 -5
-25 -14 -70 -20 -100 -6 -30 -16 -102 -22 -160 -15 -149 -15 -150 -44 -150
-18 0 -29 9 -41 33 -9 17 -24 41 -34 52 -10 11 -30 42 -44 70 -15 27 -33 56
-40 65 -7 8 -28 42 -45 75 -18 33 -39 67 -47 76 -8 8 -14 20 -14 25 -1 5 -30
54 -65 109 -36 55 -76 120 -89 145 -12 25 -41 74 -63 110 -22 36 -55 94 -73
130 -18 36 -43 77 -55 91 -12 15 -40 61 -61 103 l-39 76 -120 -6 c-66 -4 -138
-12 -160 -18 -39 -11 -41 -14 -56 -76 -15 -58 -55 -204 -95 -345 -8 -27 -21
-80 -29 -116 -8 -37 -30 -113 -49 -170 -19 -57 -39 -126 -45 -154 -5 -27 -21
-90 -34 -140 -14 -49 -31 -117 -39 -150 -9 -33 -27 -98 -41 -145 -14 -47 -28
-103 -32 -125 -4 -22 -14 -60 -22 -85 -42 -126 -59 -225 -43 -245 14 -17 18
-15 145 45 55 26 116 55 136 64 76 36 77 40 115 313 19 136 39 278 44 316 6
37 14 97 20 135 5 37 14 83 20 102 5 19 13 72 16 117 5 62 12 88 28 108 28 35
59 27 82 -18 9 -18 22 -39 29 -47 7 -8 25 -37 40 -65 15 -27 37 -60 48 -73 11
-12 30 -37 41 -56 12 -18 46 -71 77 -117 71 -107 139 -217 139 -225 0 -4 18
-33 40 -65 22 -32 40 -61 40 -64 0 -3 18 -30 40 -60 22 -30 40 -58 40 -62 0
-4 30 -53 65 -108 36 -55 70 -111 76 -125 23 -53 70 -54 159 -1 36 22 78 43
92 46 33 8 103 81 115 120 13 40 49 51 198 60 88 5 147 2 222 -9 179 -28 268
-18 457 50 59 21 86 60 86 123 0 24 8 65 17 92 23 63 9 81 -33 44 -16 -15 -42
-33 -59 -42 -16 -8 -37 -22 -46 -29 -26 -23 -151 -64 -224 -74 -58 -7 -94 -5
-213 15 -79 14 -181 25 -227 25 -113 0 -118 6 -99 144 20 155 54 224 128 263
39 20 239 22 423 3 163 -16 211 -10 335 40 99 40 103 46 103 138 0 42 4 92 9
110 7 28 6 32 -11 32 -11 0 -28 -9 -39 -21 -24 -27 -113 -72 -183 -93 -68 -20
-183 -20 -361 -1 -74 8 -158 15 -187 15 -43 0 -53 3 -58 20 -7 23 23 246 36
272 5 9 9 23 9 32 0 23 61 82 99 95 50 16 124 13 225 -9 123 -27 233 -26 356
4 54 14 122 37 150 51 l52 26 -7 73 c-5 56 -3 82 9 111 28 66 13 75 -34 21
-100 -113 -371 -143 -650 -72 -80 21 -90 29 -90 77 0 40 -7 48 -27 28z m1
-128 c3 -4 -1 -33 -10 -62 -8 -30 -18 -66 -21 -81 -3 -14 -15 -36 -27 -47 -22
-20 -114 -58 -170 -68 l-29 -6 8 99 c4 55 13 109 20 120 23 35 212 73 229 45z
m-181 -681 c-3 -123 -10 -146 -48 -164 -50 -24 -93 -30 -110 -16 -21 18 -20
141 1 186 13 27 26 37 63 49 25 8 57 13 71 12 24 -2 25 -4 23 -67z m-159 -631
c-2 -78 -44 -177 -81 -190 -38 -14 -44 15 -28 127 16 109 35 138 84 132 25 -3
26 -5 25 -69z"/>
</g>
</svg>
